<svg width="58" height="58" viewBox="5 5 22 22" class="Vote Vote-down" fill="none" xmlns="http://www.w3.org/2000/svg">
    <title>Downvote</title>
        <path fill="none" stroke="#ffffff" fill-rule="evenodd" clip-rule="evenodd" d="M17.15 24.287a1.72 1.72 0 01-2.3 0c-.78-.687-1.97-1.782-3.6-3.412a44.229 44.229 0 01-3.69-4.155c-.482-.623-.033-1.47.754-1.47H12V8.968c0-.748.437-1.403 1.175-1.525.627-.103 1.54-.193 2.825-.193 1.284 0 2.198.09 2.825.193.738.122 1.175.777 1.175 1.525v6.282h3.686c.787 0 1.236.847.754 1.47a44.235 44.235 0 01-3.69 4.155c-1.63 1.63-2.82 2.725-3.6 3.412z" stroke-width="2">
    </path>
</svg>