<svg width="58" height="58" viewBox="6 6 20 20" class="Vote Vote-up" fill="none" xmlns="http://www.w3.org/2000/svg">
    <path fill="none" stroke="#ffffff" stroke-width="2" fill-rule="evenodd" clip-rule="evenodd" d="M14.85 7.713a1.72 1.72 0 012.3 0c.78.687 1.97 1.782 3.6 3.412a44.235 44.235 0 013.69 4.155c.482.623.033 1.47-.754 1.47H20v6.282c0 .748-.437 1.403-1.175 1.525-.627.103-1.54.193-2.825.193-1.284 0-2.198-.09-2.825-.193-.738-.122-1.175-.777-1.175-1.525V16.75H8.314c-.787 0-1.236-.847-.754-1.47a44.23 44.23 0 013.69-4.155c1.63-1.63 2.82-2.725 3.6-3.412z"></path>
</svg>